<svg xmlns="http://www.w3.org/2000/svg" width="53.939" height="41.966" viewBox="0 0 53.939 41.966">
    <g>
        <g>
            <g>
                <path fill="#231f20" d="M-135.587-15.9v.109h.1a.106.106 0 0 0 .055-.014.048.048 0 0 0 .02-.041.046.046 0 0 0-.02-.04.1.1 0 0 0-.055-.014zm.1-.076a.187.187 0 0 1 .121.035.116.116 0 0 1 .042.1.11.11 0 0 1-.034.084.165.165 0 0 1-.1.04l.134.154h-.1l-.124-.153h-.04v.153h-.087v-.408zm-.027.549a.322.322 0 0 0 .133-.028.348.348 0 0 0 .108-.073.341.341 0 0 0 .073-.109.349.349 0 0 0 .027-.134.349.349 0 0 0-.027-.134.353.353 0 0 0-.073-.109.348.348 0 0 0-.108-.073.339.339 0 0 0-.133-.025.354.354 0 0 0-.135.025.345.345 0 0 0-.11.073.332.332 0 0 0-.072.109.33.33 0 0 0-.027.134.33.33 0 0 0 .027.134.321.321 0 0 0 .072.109.345.345 0 0 0 .11.073.336.336 0 0 0 .135.028m0-.783a.44.44 0 0 1 .175.035.444.444 0 0 1 .142.094.432.432 0 0 1 .1.14.42.42 0 0 1 .035.171.42.42 0 0 1-.035.171.456.456 0 0 1-.1.14.482.482 0 0 1-.142.094.44.44 0 0 1-.175.035.447.447 0 0 1-.177-.035.461.461 0 0 1-.143-.094.456.456 0 0 1-.1-.14.42.42 0 0 1-.035-.171.42.42 0 0 1 .035-.171.432.432 0 0 1 .1-.14.426.426 0 0 1 .143-.094.447.447 0 0 1 .177-.035m-41.3-1.572a1.329 1.329 0 0 1 1.343-1.417 1.327 1.327 0 0 1 1.334 1.417 1.327 1.327 0 0 1-1.334 1.417 1.329 1.329 0 0 1-1.343-1.417m3.584 0V-20h-.963v.537a1.678 1.678 0 0 0-1.4-.649 2.219 2.219 0 0 0-2.215 2.325 2.218 2.218 0 0 0 2.215 2.325 1.678 1.678 0 0 0 1.4-.649v.537h.963zm32.529 0a1.329 1.329 0 0 1 1.343-1.417 1.327 1.327 0 0 1 1.334 1.417 1.327 1.327 0 0 1-1.334 1.417 1.329 1.329 0 0 1-1.343-1.417m3.585 0v-3.991h-.964v2.315a1.678 1.678 0 0 0-1.4-.649 2.219 2.219 0 0 0-2.215 2.325 2.218 2.218 0 0 0 2.215 2.325 1.678 1.678 0 0 0 1.4-.649v.537h.964zm-24.165-1.463a1.1 1.1 0 0 1 1.121 1.074h-2.3a1.14 1.14 0 0 1 1.177-1.074m.019-.862a2.163 2.163 0 0 0-2.205 2.325 2.183 2.183 0 0 0 2.27 2.325 2.69 2.69 0 0 0 1.815-.62l-.472-.713a2.117 2.117 0 0 1-1.288.463 1.23 1.23 0 0 1-1.324-1.084h3.287c.01-.12.019-.241.019-.37a2.123 2.123 0 0 0-2.1-2.325m11.623 2.325A1.329 1.329 0 0 1-148.3-19.2a1.327 1.327 0 0 1 1.334 1.417 1.327 1.327 0 0 1-1.334 1.417 1.329 1.329 0 0 1-1.343-1.417m3.584 0V-20h-.963v.537a1.68 1.68 0 0 0-1.4-.649 2.219 2.219 0 0 0-2.215 2.325 2.218 2.218 0 0 0 2.215 2.325 1.68 1.68 0 0 0 1.4-.649v.537h.963zm-9.021 0a2.236 2.236 0 0 0 2.362 2.325 2.318 2.318 0 0 0 1.592-.528l-.462-.778a1.945 1.945 0 0 1-1.159.4 1.322 1.322 0 0 1-1.334-1.417 1.322 1.322 0 0 1 1.334-1.417 1.945 1.945 0 0 1 1.159.4l.462-.778a2.318 2.318 0 0 0-1.592-.528 2.236 2.236 0 0 0-2.362 2.325m12.411-2.325a1.307 1.307 0 0 0-1.167.649V-20h-.954v4.427h.964v-2.482c0-.733.315-1.14.945-1.14a1.561 1.561 0 0 1 .6.111l.3-.907a2.05 2.05 0 0 0-.686-.121m-25.8.463a3.311 3.311 0 0 0-1.805-.463c-1.122 0-1.844.537-1.844 1.417 0 .722.537 1.167 1.528 1.306l.455.065c.528.074.777.213.777.463 0 .342-.352.537-1.009.537a2.358 2.358 0 0 1-1.473-.463l-.454.75a3.194 3.194 0 0 0 1.917.575c1.279 0 2.02-.6 2.02-1.445 0-.778-.583-1.185-1.547-1.324l-.454-.066c-.417-.055-.751-.138-.751-.435 0-.324.315-.518.843-.518a2.856 2.856 0 0 1 1.38.38zm12.42-.463a1.3 1.3 0 0 0-1.166.649V-20h-.954v4.427h.963v-2.482c0-.733.315-1.14.945-1.14a1.561 1.561 0 0 1 .6.111l.3-.907a2.05 2.05 0 0 0-.686-.121m-8.215.111h-1.574v-1.343h-.973V-20h-.9v.88h.9v2.02c0 1.027.4 1.639 1.537 1.639a2.259 2.259 0 0 0 1.2-.342l-.278-.825a1.782 1.782 0 0 1-.852.25c-.481 0-.638-.3-.638-.741v-2h1.574zm-14.393 4.427v-2.779a1.648 1.648 0 0 0-1.742-1.76 1.714 1.714 0 0 0-1.556.788 1.625 1.625 0 0 0-1.463-.788 1.464 1.464 0 0 0-1.3.657V-20h-.964v4.427h.972v-2.454a1.036 1.036 0 0 1 1.084-1.177c.639 0 .963.417.963 1.167v2.464h.973v-2.454A1.044 1.044 0 0 1-180.6-19.2c.657 0 .972.417.972 1.167v2.464z" transform="translate(1565.623 -1106.748) translate(-1565.623 1106.748) translate(2.745 35.522) translate(185.679 21.774)"/>
            </g>
            <g>
                <path fill="#f79410" d="M-3.8-1.75v-.65h-.169l-.2.444-.191-.444h-.17v.647h.12v-.488l.182.421h.128l.182-.422v.489zm-1.07 0v-.536h.216V-2.4h-.551v.109h.216v.536z" transform="translate(1565.623 -1106.748) translate(-1565.623 1106.748) translate(52.025 26.358) translate(5.207 2.397)"/>
            </g>
            <path fill="#ff5f00" d="M3357.593 2173.79H3343v-26.219h14.589z" transform="translate(1565.623 -1106.748) translate(-1565.623 1106.748) translate(-3323.33 -2144.004)"/>
            <g>
                <path fill="#eb001b" d="M-55.783-45.134a16.646 16.646 0 0 1 6.368-13.109 16.6 16.6 0 0 0-10.3-3.565 16.673 16.673 0 0 0-16.677 16.674A16.673 16.673 0 0 0-59.719-28.46a16.6 16.6 0 0 0 10.3-3.565 16.646 16.646 0 0 1-6.368-13.109" transform="translate(1565.623 -1106.748) translate(-1565.623 1106.748) translate(76.392 61.809)"/>
            </g>
            <g>
                <path fill="#f79e1b" d="M-73.023-45.134A16.673 16.673 0 0 1-89.7-28.46a16.607 16.607 0 0 1-10.3-3.565 16.644 16.644 0 0 0 6.369-13.109A16.644 16.644 0 0 0-100-58.244a16.607 16.607 0 0 1 10.3-3.565 16.673 16.673 0 0 1 16.677 16.675" transform="translate(1565.623 -1106.748) translate(-1565.623 1106.748) translate(26.961) translate(100.001 61.809)"/>
            </g>
        </g>
    </g>
</svg>
