<svg xmlns="http://www.w3.org/2000/svg" width="89.708" height="29.033" viewBox="0 0 89.708 29.033">
    <defs>
        <style>
            .cls-1{fill:#00579f}
        </style>
    </defs>
    <g id="g4158">
        <path id="polygon9" d="M440.774 138.831h-7.267l4.545-28.1h7.267z" class="cls-1" transform="translate(-401.901 -110.217)"/>
        <path id="path11" d="M586.978 106.244a17.908 17.908 0 0 0-6.518-1.2c-7.176 0-12.23 3.827-12.261 9.3-.06 4.037 3.618 6.279 6.369 7.625 2.811 1.375 3.767 2.273 3.767 3.5-.029 1.883-2.272 2.751-4.364 2.751a14.463 14.463 0 0 1-6.818-1.495l-.957-.449-1.017 6.309a22.118 22.118 0 0 0 8.1 1.5c7.625 0 12.589-3.768 12.648-9.6.029-3.2-1.913-5.651-6.1-7.654-2.542-1.286-4.1-2.153-4.1-3.469.03-1.2 1.317-2.421 4.186-2.421a12.348 12.348 0 0 1 5.413 1.076l.657.3.988-6.069z" class="cls-1" transform="translate(-521.761 -105.048)"/>
        <path id="path13" d="M801.765 128.875c.6-1.615 2.9-7.863 2.9-7.863-.03.06.6-1.644.956-2.691l.508 2.422s1.376 6.727 1.675 8.132zm8.97-18.148h-5.621a3.586 3.586 0 0 0-3.8 2.332l-10.794 25.772h7.625l1.525-4.216H809c.209.987.867 4.216.867 4.216h6.733l-5.863-28.1z" class="cls-1" transform="translate(-726.89 -110.217)"/>
        <path id="path15" d="M183.777 110.727l-7.117 19.165-.777-3.892c-1.316-4.485-5.442-9.358-10.047-11.78l6.519 24.577h7.685l11.422-28.075z" class="cls-1" transform="translate(-158.24 -110.217)"/>
        <path id="path17" fill="#faa61a" d="M92.977 110.727H81.285l-.12.568c9.12 2.332 15.161 7.954 17.642 14.711l-2.542-12.917c-.418-1.795-1.7-2.3-3.289-2.362z" transform="translate(-81.166 -110.217)"/>
    </g>
</svg>
