<?xml version="1.0" standalone="no"?>
<!DOCTYPE svg PUBLIC "-//W3C//DTD SVG 20010904//EN"
 "http://www.w3.org/TR/2001/REC-SVG-20010904/DTD/svg10.dtd">
<svg version="1.0" xmlns="http://www.w3.org/2000/svg"
 width="164.000000pt" height="112.000000pt" viewBox="0 0 164.000000 112.000000"
 preserveAspectRatio="xMidYMid meet">
<metadata>
Created by potrace 1.16, written by Peter Selinger 2001-2019
</metadata>
<g transform="translate(0.000000,112.000000) scale(0.100000,-0.100000)"
fill="#000000" stroke="none">
<path d="M185 1045 l-25 -24 0 -363 c0 -342 2 -364 20 -388 19 -25 21 -25 186
-27 92 -2 172 -7 177 -12 6 -6 -2 -28 -23 -60 -35 -55 -34 -80 2 -82 90 -6
364 3 374 12 15 12 9 33 -24 76 -29 39 -23 78 11 69 12 -3 32 -6 45 -6 20 0
22 -5 22 -49 0 -118 13 -123 292 -119 196 3 218 5 237 22 21 19 21 25 21 418
l0 399 -25 25 c-24 23 -31 25 -118 24 -50 -1 -97 -1 -103 -1 -6 1 -14 19 -18
40 -11 74 9 71 -539 71 l-488 0 -24 -25z m978 -51 c3 -3 3 -12 0 -20 -4 -10
-25 -14 -78 -14 -42 0 -88 -6 -108 -15 -29 -12 -83 -15 -254 -15 -120 0 -223
-4 -230 -8 -18 -11 -4 -49 20 -56 12 -3 116 -6 230 -6 l208 0 -3 -42 -3 -43
-217 -1 c-227 -1 -251 -5 -241 -44 5 -18 51 -35 78 -30 6 2 94 2 196 1 l186
-1 0 -40 c0 -22 -5 -41 -11 -42 -6 -1 -106 -2 -223 -2 -224 -1 -250 -6 -227
-44 10 -15 37 -18 235 -22 l224 -5 3 -32 3 -33 -360 0 -361 0 0 253 c0 140 3
257 7 260 8 9 917 9 926 1z m270 -126 c3 -12 4 -25 1 -30 -3 -4 -81 -8 -175
-8 -144 0 -169 2 -169 15 0 8 -4 15 -10 15 -5 0 -10 -7 -10 -16 0 -10 -7 -14
-22 -12 -17 2 -24 11 -26 31 l-3 27 204 0 c202 0 205 0 210 -22z m-2 -300 c0
-104 -1 -210 -1 -238 l0 -50 -205 0 -205 0 0 240 0 240 205 -2 206 -3 0 -187z
m-485 -182 c3 -13 4 -35 2 -47 l-3 -24 -357 -2 -358 -1 0 42 c0 24 3 45 6 49
3 3 163 6 355 7 l348 1 7 -25z m-155 -186 c4 -19 5 -37 3 -40 -10 -9 -194 -5
-194 5 0 6 4 26 10 45 l10 35 82 -5 82 -5 7 -35z"/>
<path d="M1086 573 c-59 -49 -60 -62 -5 -111 18 -15 43 -25 76 -28 l50 -4 43
66 c40 63 43 65 61 48 24 -22 24 -36 -1 -52 -24 -14 -27 -50 -5 -58 28 -11
104 53 105 88 0 40 -131 104 -166 80 -6 -4 -25 -33 -43 -64 -18 -32 -36 -58
-39 -58 -11 1 -42 27 -42 35 0 5 9 19 21 31 14 15 19 29 14 43 -9 28 -15 27
-69 -16z"/>
</g>
</svg>
