<svg xmlns="http://www.w3.org/2000/svg" width="34.004" height="34.002" viewBox="0 0 34.004 34.002">
    <defs>
        <style>
            .cls-1{fill:#000808}
        </style>
    </defs>
    <g id="noun_tick_453824" transform="translate(-.098)">
        <g id="Group_3301" transform="translate(.098)">
            <path id="Path_12109" d="M17.1 34a17 17 0 1 1 17-17 17.021 17.021 0 0 1-17 17zm0-31.388A14.386 14.386 0 1 0 31.486 17 14.4 14.4 0 0 0 17.1 2.615z" class="cls-1" transform="translate(-.098)"/>
        </g>
        <g id="Group_3302" transform="translate(9.664 11.535)">
            <path id="Path_12110" d="M11.953 18.969a1.282 1.282 0 0 1-.909-.377L7.1 14.651a1.286 1.286 0 0 1 1.818-1.818l3.03 3.03L19.4 8.412a1.287 1.287 0 1 1 1.82 1.82l-8.362 8.362a1.287 1.287 0 0 1-.905.375z" class="cls-1" transform="translate(-6.728 -8.035)"/>
        </g>
    </g>
</svg>
