<svg xmlns="http://www.w3.org/2000/svg" width="28" height="28" viewBox="0 0 28 28">
    <g fill="none" fill-rule="nonzero">
        <path fill="#F79B00" d="M27.581 17.387c-1.87 7.5-9.467 12.064-16.97 10.194C3.114 25.711-1.451 18.115.42 10.615 2.29 3.114 9.885-1.451 17.385.419c7.501 1.87 12.066 9.467 10.196 16.968z"/>
        <path fill="#FFF" d="M20.105 11.85c.279-1.863-1.14-2.864-3.079-3.532l.63-2.524-1.537-.382-.612 2.457c-.41-.101-.82-.198-1.23-.29l.616-2.473-1.535-.383-.63 2.523a51.387 51.387 0 0 1-.98-.231l.001-.008-2.118-.529-.409 1.64s1.14.262 1.116.278c.622.155.735.567.716.894l-.717 2.874c.043.011.099.027.16.052l-.163-.04-1.004 4.026c-.076.19-.27.473-.704.365.015.023-1.116-.278-1.116-.278l-.763 1.758 1.999.5c.372.092.736.19 1.095.281l-.636 2.553 1.535.383.629-2.526c.419.114.826.219 1.224.318l-.628 2.513 1.536.383.636-2.547c2.62.495 4.59.295 5.418-2.073.668-1.908-.033-3.008-1.411-3.726 1.003-.232 1.76-.892 1.961-2.256zm-3.51 4.921c-.475 1.908-3.686.877-4.728.618l.844-3.381c1.041.26 4.38.774 3.884 2.763zm.475-4.948c-.433 1.735-3.106.853-3.973.637l.765-3.067c.867.216 3.66.62 3.208 2.43z"/>
    </g>
</svg>
