<svg xmlns="http://www.w3.org/2000/svg" width="28.976" height="26.947" viewBox="0 0 28.976 26.947">
    <g>
        <g>
            <g transform="translate(-.54 -15.45) translate(-4.46 7.299) translate(5 8.151)">
                <path d="M24.317 8.151h-9.658A9.674 9.674 0 0 0 5 17.819v2.552a9.65 9.65 0 0 0 6.575 9.16c-.49.847-1.158 2.167-2.118 4.229a.941.941 0 0 0 1.243 1.253l10.875-4.975h2.741a9.674 9.674 0 0 0 9.659-9.668v-2.552a9.674 9.674 0 0 0-9.658-9.667zm7.776 12.22a7.79 7.79 0 0 1-7.776 7.785h-2.946a.938.938 0 0 0-.392.086l-8.679 3.97a22.214 22.214 0 0 1 1.351-2.442.942.942 0 0 0-.325-1.733 7.772 7.772 0 0 1-6.442-7.667v-2.551a7.79 7.79 0 0 1 7.776-7.785h9.659a7.79 7.79 0 0 1 7.776 7.785v2.552z" transform="translate(-5 -8.151)"/>
                <circle cx="2.082" cy="2.082" r="2.082" transform="translate(5.108 9.077)"/>
                <circle cx="2.082" cy="2.082" r="2.082" transform="translate(19.704 9.077)"/>
                <circle cx="2.082" cy="2.082" r="2.082" transform="translate(12.406 9.077)"/>
            </g>
        </g>
    </g>
</svg>
