<svg xmlns="http://www.w3.org/2000/svg" width="139.494" height="52.63" viewBox="0 0 139.494 52.63">
    <defs>
        <style>
            .cls-1{fill:#009cde}
        </style>
    </defs>
    <g id="Your_Icons" transform="translate(-3.385 -31.64)">
        <path id="Path_12148" d="M21.819 55.246A11.8 11.8 0 1 0 10 43.443a11.8 11.8 0 0 0 11.819 11.803zm0-20.479a8.676 8.676 0 1 1-8.692 8.676 8.676 8.676 0 0 1 8.692-8.676z" class="cls-1" transform="translate(3.726)"/>
        <path id="Path_12149" d="M25.545 47.85c-13.116 0-19.01 8.192-21.652 15.039a7.379 7.379 0 0 0 6.894 10.068H40.3a7.394 7.394 0 0 0 6.9-10.068c-2.63-6.847-8.461-15.039-21.655-15.039zM43.82 67.986a4.174 4.174 0 0 1-3.52 1.844H10.787a4.252 4.252 0 0 1-3.971-5.816c2.282-5.941 7.394-13.038 18.76-13.038s16.446 7.1 18.76 13.038a4.221 4.221 0 0 1-.516 3.971z" class="cls-1" transform="translate(0 9.131)"/>
        <path id="Path_12150" d="M82.7 55.246a11.8 11.8 0 1 0-11.819-11.8 11.8 11.8 0 0 0 11.819 11.8zm0-20.479a8.676 8.676 0 1 1-8.692 8.676 8.676 8.676 0 0 1 8.692-8.676z" class="cls-1" transform="translate(38.021)"/>
        <path id="Path_12151" d="M108.08 62.889c-2.642-6.847-8.536-15.039-21.652-15.039S67.4 56.042 64.76 62.889a7.394 7.394 0 0 0 6.91 10.068h29.515a7.379 7.379 0 0 0 6.894-10.068zm-3.377 5.1a4.221 4.221 0 0 1-3.517 1.845H71.67a4.174 4.174 0 0 1-3.5-1.845 4.221 4.221 0 0 1-.469-3.971c2.3-5.941 7.395-13.038 18.76-13.038s16.446 7.1 18.76 13.038a4.221 4.221 0 0 1-.521 3.968z" class="cls-1" transform="translate(34.292 9.131)"/>
        <path id="Path_12152" d="M73.681 54.444H40.07l9.38-9.38a1.564 1.564 0 1 0-2.2-2.22L35.161 54.913a1.563 1.563 0 0 0 1.11 2.658h37.41a1.563 1.563 0 0 0 0-3.127z" class="cls-1" transform="translate(17.648 6.055)"/>
        <path id="Path_12153" d="M73.672 55.6H36.293a1.563 1.563 0 0 0 0 3.127H69.9l-9.38 9.38a1.564 1.564 0 1 0 2.22 2.2l12.027-12.018a1.563 1.563 0 0 0-1.11-2.673z" class="cls-1" transform="translate(17.657 13.497)"/>
    </g>
</svg>
