<svg xmlns="http://www.w3.org/2000/svg" width="73.105" height="64.19" viewBox="0 0 73.105 64.19">
    <path fill="#009cde" d="M16.132 966.362A7.156 7.156 0 0 0 9 973.494v50.817a6.267 6.267 0 0 0 6.241 6.241h60.624a6.267 6.267 0 0 0 6.241-6.241V983.3a6.267 6.267 0 0 0-6.241-6.241h-4.458v-8.915a1.853 1.853 0 0 0-1.783-1.783zm0 3.566h51.709v7.132H16.132a3.566 3.566 0 0 1 0-7.132zm-3.566 9.723a7.075 7.075 0 0 0 3.566.975c20.081-.018 42.473 0 59.733 0a2.63 2.63 0 0 1 2.675 2.675v8.915H52.685a4.488 4.488 0 0 0-4.458 4.458v14.265a4.488 4.488 0 0 0 4.458 4.458h25.854v8.915a2.63 2.63 0 0 1-2.675 2.675H15.241a2.63 2.63 0 0 1-2.675-2.675zm40.119 16.131h25.854v16.048H52.685a.853.853 0 0 1-.892-.892v-14.264a.853.853 0 0 1 .892-.891zm8.915 4.458a3.566 3.566 0 1 0 3.566 3.566 3.566 3.566 0 0 0-3.566-3.566z" transform="translate(-9 -966.362)"/>
</svg>
