<svg xmlns="http://www.w3.org/2000/svg" width="135" height="30" viewBox="0 0 135 30">
    <g fill="none" fill-rule="nonzero">
        <path fill="#009CDE" d="M25.113 25.645c1.403-1.597 1.984-2.516 2.468-4.21-.678-1.548-1.258-2.564-3.146-5.129 1.888-2.564 2.517-3.58 3.146-5.129-.436-1.693-1.065-2.612-2.468-4.21-1.936 2.13-3.532 3.92-6.774 7.259v4.161c3.242 3.339 4.838 5.13 6.774 7.258z"/>
        <path fill="#293038" d="M4.5 5.08c1.597-1.403 2.516-1.983 4.21-2.467 1.548.677 2.564 1.258 5.129 3.145 2.564-1.887 3.58-2.516 5.129-3.145 1.693.435 2.613 1.064 4.21 2.468-2.13 1.935-3.92 3.532-7.259 6.822h-4.16c-3.34-3.29-5.13-4.935-7.259-6.822zM23.226 27.532c-1.597 1.403-2.516 1.984-4.21 2.468-1.548-.677-2.564-1.258-5.129-3.145-2.564 1.887-3.58 2.516-5.129 3.145-1.693-.435-2.613-1.065-4.21-2.468 2.13-1.935 3.92-3.532 7.258-6.822h4.162c3.338 3.29 5.129 4.935 7.258 6.822zM2.613 6.968C1.21 8.565.629 9.484.145 11.178c.678 1.548 1.258 2.564 3.145 5.128-1.887 2.565-2.516 3.581-3.145 5.13.436 1.693 1.065 2.612 2.468 4.21 1.935-2.13 3.532-3.92 6.822-7.259v-4.161c-3.29-3.339-4.887-5.13-6.822-7.258z"/>
        <g fill="#000">
            <path d="M50.032 26.42l-4.645-6.291h-.193l-4.646 6.29h-4.064l6.629-9.193-6.387-8.952h4.258l4.403 6h.194l4.403-6h4.064l-6.387 8.903 6.678 9.242zM66.484 26.565c-.968.096-1.839.145-2.71.145-2.274 0-3.968-.339-5.032-1.016-1.065-.678-1.742-1.646-2.08-2.904-.291-1.258-.485-3.096-.485-5.516 0-2.274.194-4.064.533-5.37.338-1.307 1.064-2.275 2.129-2.952 1.064-.678 2.661-1.017 4.79-1.017.871 0 1.742.049 2.71.146.967.096 1.742.242 2.37.387v3.145c-1.209-.242-2.612-.339-4.112-.339-1.403 0-2.42.145-3.049.484-.629.339-1.064.871-1.258 1.694-.193.822-.29 2.08-.29 3.822 0 1.79.097 3.097.339 3.92.193.822.629 1.354 1.258 1.645.629.29 1.645.435 3.097.435 1.16 0 2.564-.097 4.16-.339v3.146c-.628.242-1.402.387-2.37.484zM74.565 25.887c-1.113-.532-1.84-1.403-2.13-2.613-.29-1.21-.483-3.193-.483-5.951 0-2.71.145-4.694.483-5.904.29-1.21 1.017-2.08 2.13-2.613 1.112-.532 2.951-.774 5.516-.774 2.564 0 4.403.242 5.516.774 1.113.533 1.838 1.404 2.129 2.613.29 1.21.484 3.194.484 5.904 0 2.758-.145 4.742-.484 5.951-.29 1.21-1.016 2.08-2.13 2.613-1.112.532-2.95.823-5.515.823-2.565 0-4.404-.29-5.516-.823zm8.612-2.952c.581-.29.92-.774 1.065-1.5.145-.725.193-2.129.193-4.112 0-2.033-.048-3.388-.193-4.113-.145-.726-.484-1.21-1.065-1.5-.58-.242-1.596-.387-3.096-.387s-2.516.145-3.097.387c-.58.242-.92.774-1.065 1.5-.145.725-.193 2.08-.193 4.113 0 2.032.048 3.387.193 4.112.146.726.484 1.259 1.065 1.5.58.29 1.597.388 3.097.388s2.516-.097 3.096-.388zM92.371 3.823V0h3.968v3.823H92.37zm.048 22.596V8.274h3.775V26.42h-3.775zM112.935 16.645c0-1.645-.096-2.806-.241-3.484-.146-.677-.484-1.113-1.017-1.306-.483-.194-1.354-.29-2.612-.29-1.21 0-2.13.193-2.759.58-.629.387-1.016.92-1.16 1.694-.194.726-.291 1.838-.291 3.242v9.338h-3.726V8.274h3.484l.097 2.371h.29c.435-.92 1.113-1.548 2.032-2.032.92-.436 2.178-.678 3.774-.678 1.646 0 2.904.242 3.775.775.87.532 1.451 1.258 1.742 2.274.29.968.435 2.322.435 4.016v11.371h-3.774v-9.726h-.049zM124.5 26.565c-1.258-.097-2.371-.194-3.29-.34v-3.193c2.177.242 4.258.339 6.29.339 1.113 0 1.935-.048 2.468-.194.532-.145.87-.338 1.016-.629.145-.29.242-.725.242-1.306 0-.58-.049-1.016-.145-1.258a.958.958 0 0 0-.533-.532c-.242-.097-.725-.194-1.354-.242l-4.404-.533c-1.113-.145-1.984-.435-2.564-.822-.58-.436-1.016-.968-1.21-1.694a10.7 10.7 0 0 1-.339-2.758c0-1.548.29-2.71.871-3.484a4.036 4.036 0 0 1 2.371-1.548c1.016-.242 2.323-.387 3.968-.387.968 0 2.032.048 3.145.145a26.29 26.29 0 0 1 2.807.387v3.145a43.326 43.326 0 0 0-5.662-.387c-1.016 0-1.79.049-2.322.145-.532.097-.92.29-1.161.581-.242.29-.388.774-.388 1.355 0 .532.049.92.146 1.161.096.242.29.436.532.532.242.097.677.194 1.258.242l4.79.581c.968.097 1.742.339 2.226.58.532.29.92.775 1.161 1.5.242.726.387 1.743.387 3.146 0 1.548-.241 2.71-.774 3.532-.532.823-1.258 1.355-2.226 1.597-.967.29-2.225.387-3.822.387-1.016.097-2.178.048-3.484-.048z"/>
        </g>
    </g>
</svg>
